<svg xmlns="http://www.w3.org/2000/svg" width="128" height="128">
    <defs>
        <linearGradient id="linear-gradient" x1="1.67" y1="64.29" x2="65.32" y2="64.29" gradientUnits="userSpaceOnUse">
            <stop offset="0" stop-color="#0086bf"/>
            <stop offset="1" stop-color="#0588c0" stop-opacity="0"/>
        </linearGradient>
        <linearGradient id="linear-gradient-2" x1="42.05" y1="14.36" x2="56.08" y2="45.57" gradientUnits="userSpaceOnUse">
            <stop offset="0" stop-color="#0086bf"/>
            <stop offset=".36" stop-color="#0086bf" stop-opacity=".99"/>
            <stop offset=".5" stop-color="#0086bf" stop-opacity=".95"/>
            <stop offset=".61" stop-color="#0186bf" stop-opacity=".89"/>
            <stop offset=".7" stop-color="#0186bf" stop-opacity=".8"/>
            <stop offset=".77" stop-color="#0287bf" stop-opacity=".68"/>
            <stop offset=".84" stop-color="#0287bf" stop-opacity=".53"/>
            <stop offset=".91" stop-color="#0387c0" stop-opacity=".35"/>
            <stop offset=".96" stop-color="#0488c0" stop-opacity=".16"/>
            <stop offset="1" stop-color="#0588c0" stop-opacity="0"/>
        </linearGradient>
    </defs>

    <path d="M78.66 81v-6.68h.87c0 .05.1.09.11.15.51 2.8 2.33 4.31 5 5a9.87 9.87 0 005.62-.23 5.47 5.47 0 002.17-8.76A21.12 21.12 0 0089.27 68c-2.12-1.5-4.38-2.84-6.4-4.46a9.15 9.15 0 01-3.32-9.35c.79-4.11 3.65-6.19 7.45-7.14a29.87 29.87 0 019-.34c1.22.08 2.43.27 3.7.42v6.61h-1c-1.13-3.8-3.89-5.38-8.25-4.73-.28 0-.56.08-.83.14a4.38 4.38 0 00-3.64 3 4.83 4.83 0 001 5.11 19.31 19.31 0 003.08 2.38c2.22 1.49 4.56 2.8 6.72 4.38 4.89 3.59 4.38 10.76 1.8 13.93a10.55 10.55 0 01-6.26 3.65 30 30 0 01-13.29-.39 1.86 1.86 0 01-.37-.21zM52.75 74.3h.89V81c-1.67.29-3.24.65-4.84.82a29.1 29.1 0 01-12.94-1.12c-5.86-2-9.15-6.19-10-12.29a19.49 19.49 0 012.07-12.78c2.95-5.14 7.54-7.93 13.33-8.81a47.94 47.94 0 0112.74.26v6.69l-.86.07a1.27 1.27 0 01-.14-.3 4.16 4.16 0 00-2.17-3.31c-2.81-1.7-9.89-1.78-13 1.13A11.79 11.79 0 0034.3 58a27.94 27.94 0 00.45 14.18 9.84 9.84 0 009.59 7.23 22.3 22.3 0 004-.2 4.7 4.7 0 004.29-4.47 1.74 1.74 0 01.12-.44zM73.43 80.89v.85H59.17l-.06-.74a1.14 1.14 0 01.28-.13c2.15-.47 3-1.34 3.14-3.5.09-.94.14-1.89.15-2.84V53.19c0-.78-.06-1.55-.14-2.32-.19-1.86-.87-2.59-2.71-3l-.46-.1v-.91h14.17c.19.57.11.89-.58 1a3.13 3.13 0 00-2.65 2.9 17.8 17.8 0 00-.2 2.41v23.57c0 .48.11 1 .17 1.46a2.8 2.8 0 002.29 2.45z" fill="#033d5d"/>
    <path d="M62.13 127.89A63.65 63.65 0 0120.31 19.32 63.24 63.24 0 0165.32.68v2.55a61.1 61.1 0 00-44.21 103.28 60.85 60.85 0 0041.15 18.85z" fill="url(#linear-gradient)"/>
    <path d="M12.68 72.14a53.59 53.59 0 01-.57-7.81 53.2 53.2 0 0190.83-37.62l-1.8 1.79a50.67 50.67 0 00-86.49 35.83 51.31 51.31 0 00.54 7.44z" fill="url(#linear-gradient-2)"/>
</svg>
