<svg xmlns="http://www.w3.org/2000/svg" width="128" height="128">
    <path fill="#3e529b" d="M33.63 77.37v-9.65A4.54 4.54 0 0132.51 69c-.62.5-1.43.64-2.07 1.12a6 6 0 00-1.28 1.23 1.77 1.77 0 00-.1 1.88c.69 1.32 2.06 2 3.26 2.82a5 5 0 011.31 1.32z"/>
    <path fill="#3e529b" d="M46.74 55.1a15.19 15.19 0 01-1.15-1.26c-.15-.22-.3-.53-.13-.78a.86.86 0 011-.34c.74.24 1.41.66 2.13 1a13.61 13.61 0 004.65 1.4c-.78-1-2-1.65-2.65-2.74a13.33 13.33 0 011.81.62c.65.2 1.29.47 2 .66a27 27 0 002.95.6 2.85 2.85 0 001.65-.15 9.45 9.45 0 01-2.14-1.23 3.47 3.47 0 01-1.14-1.3c.17-.26.47 0 .7 0 1 .26 2 .6 3.05.85a18.47 18.47 0 003.14.48 10.93 10.93 0 002.86-.16 3.15 3.15 0 00-1.38-.5 17.12 17.12 0 01-2.92-1.17c-.9-.37-1.75-.83-2.62-1.26-1.42-.77-2.93-1.37-4.36-2.12a22.55 22.55 0 01-3.32-2C49.63 45 48.44 44 47 43.89a4.16 4.16 0 00-2.94.53 6.09 6.09 0 00-1.67 2.22c-.41.91-.94 1.76-1.31 2.69a6.32 6.32 0 01-2.31 2.91 8.73 8.73 0 01-2.23 1 8.37 8.37 0 01-2.8.44 5.23 5.23 0 010-1.25 9.89 9.89 0 003.86-1.31 7.35 7.35 0 003.07-3.9c.68-1.47 1.28-3.09 2.61-4.1a4.8 4.8 0 013.21-1.06 9.41 9.41 0 012.63.75 28.37 28.37 0 014.32 2.53c1 .64 1.9 1.4 2.93 2a21.48 21.48 0 003 1.62 29.2 29.2 0 003.7 1.44 19.42 19.42 0 002.91.75 9.28 9.28 0 002.57.21 7.25 7.25 0 002.5-.63 5.31 5.31 0 001.79-1.32A13.71 13.71 0 0168 49a38.23 38.23 0 01-6.72-2.19A25.39 25.39 0 0158 45.12c-2.44-1.41-4.55-3.31-6.95-4.78A15.3 15.3 0 0047.72 39a11.29 11.29 0 00-2.6-.14 5.41 5.41 0 00-2.51.67 5.26 5.26 0 00-2.21 2.56 15.7 15.7 0 00-.81 2.3 22 22 0 01-1.05 3.35 5.61 5.61 0 01-4.85 3.58v-7.03c1.36.86 2.59 1.94 4 2.78-.14-.35-.28-.7-.39-1.06-.32-1.2-.81-2.34-1.11-3.54a20.31 20.31 0 012.1-1.59A17.52 17.52 0 0040 39.53h-4.37c-.17 0-.43 0-.5-.18a23.86 23.86 0 01-.93-2.86 8.16 8.16 0 01-.56-2.1v-3.93a33.84 33.84 0 00-4.15.22c-1.13.09-2.24.39-3.36.59a26.19 26.19 0 00-3.67 1.09 25.13 25.13 0 00-3.72 1.54c-.87.5-1.81.89-2.64 1.46a33.16 33.16 0 00-6.48 5.14 32.17 32.17 0 00-2.86 3.31C5.9 45 5.08 46.2 4.32 47.46a13.78 13.78 0 002.32-1c.71-.31 1.39-.68 2.09-1a20.61 20.61 0 001.9-1.17c1.07-.65 2-1.45 3.07-2.18a17.67 17.67 0 015-2.87 6 6 0 012.3-.4 9.91 9.91 0 012.37.13 5.23 5.23 0 012 1 6 6 0 011.42 1.79 10 10 0 01.75 1.85c.42 1.16.54 2.41 1 3.56a6.3 6.3 0 002.73 3.44 7.69 7.69 0 002.37.83v.93a4.6 4.6 0 01-1.47-.27 11.38 11.38 0 01-3.11-1.47 7.87 7.87 0 01-2.2-3 23.28 23.28 0 00-1.32-2.76A5.2 5.2 0 0021.07 42a8.24 8.24 0 00-3.2.89A17.94 17.94 0 0016 44c-1.75 1-3.31 2.25-5 3.34a41.25 41.25 0 01-5.32 2.55c-.88.38-1.82.56-2.73.85-.28.06-.4.35-.51.58-.3.73-.46 1.5-.76 2.23a15.25 15.25 0 00-.57 2A30.57 30.57 0 000 64.57a29.68 29.68 0 00.69 6.24 34.81 34.81 0 001.58 5.4c.2.55.45 1.07.68 1.61a36.28 36.28 0 003.11 5.41A34.11 34.11 0 0017 93.18c1.47.77 2.94 1.52 4.48 2.14 1.26.41 2.49.88 3.77 1.23a31.82 31.82 0 007.76 1 7.5 7.5 0 00-1.8-1.8c-.86-.83-1.8-1.86-1.73-3.13a3 3 0 011.25-2.47c.31-.25.75-.44.82-.88s-.25-.73-.53-1a15 15 0 01-1.89-1.85 5.34 5.34 0 01-1.43-3.07 6.28 6.28 0 012-3.62c.42-.46 1-.79 1.38-1.26a.56.56 0 00-.07-.78 12.54 12.54 0 00-1.72-1.36 10.66 10.66 0 01-2.3-2.14 3.22 3.22 0 01-.32-2.59A5.32 5.32 0 0129 68.47c.55-.39 1.2-.61 1.75-1a.44.44 0 00.23-.55 2.1 2.1 0 00-.72-.54L27.3 65a25.3 25.3 0 01-2.69-1.75A6.32 6.32 0 0123 61.59a6.55 6.55 0 01-.9-3.28A3.63 3.63 0 0123.86 55a5.6 5.6 0 016.39.59 12 12 0 011.19 1.55c.39.47 1 .61 1.46 1a1.69 1.69 0 01.57 1.86 1.86 1.86 0 01-1.91 1.2c-1.06-.08-1.68-1.07-2.11-1.92a3 3 0 00-2.33-1.84 3.15 3.15 0 00-1.43.15 1.87 1.87 0 00-.84 1.63 3.05 3.05 0 001.46 2.4 29.41 29.41 0 003.94 2.31c1.07.53 2.35.83 3.08 1.85.53.65.09 1.58.59 2.24.57 1.07 1.8 1.44 2.78 2a5.07 5.07 0 011.3 1.1 2 2 0 010 2.44 12.76 12.76 0 01-3.3 2.63 2.4 2.4 0 00-1.12 2 2.34 2.34 0 001 1.76 12.59 12.59 0 012.51 2.38 2 2 0 01.27 2.15c-.86 1.6-2.72 2.34-3.56 4-.35.56 0 1.31-.43 1.84s-1.25 1-1.71 1.59a1.54 1.54 0 00-.28 1.51 17.46 17.46 0 001.67 2.46 2.9 2.9 0 01.33 1.76h.28v-7.43c.41.36.79.76 1.23 1.09a3.1 3.1 0 01.83.9 1.25 1.25 0 01.28 1 26.09 26.09 0 01-1.69 2.5 2.22 2.22 0 00-.24 1.87 2.1 2.1 0 00.91-.73c.47-.54 1.09-.89 1.57-1.41a5.83 5.83 0 001.25-1.93 3.15 3.15 0 00-.71-3c-.35-.38-.84-.59-1.18-1a.71.71 0 01.2-.91 17.79 17.79 0 003-3.36 3.76 3.76 0 00.56-2.23 7.62 7.62 0 00-2.51-3.77c-.33-.31-.78-.54-1-1-.11-.25.09-.48.25-.64 1-.92 2.19-1.58 3.17-2.52a3.26 3.26 0 001.24-2.36 4.74 4.74 0 00-1-3A6.92 6.92 0 0037.6 68a4.88 4.88 0 01-1.09-.62.35.35 0 010-.5 5.6 5.6 0 011.4-.88c.72-.39 1.48-.68 2.17-1.11A14 14 0 0044 62a6 6 0 001.15-3.35 4.19 4.19 0 00-1.41-3.52c1.02-.04 2.01 0 3-.03zm-13.15-11a5.67 5.67 0 01-1.15.92c-.9.62-1.74 1.34-2.7 1.87.44-1.53 1.07-3 1.41-4.57-.77-.59-1.6-1.1-2.36-1.7-.48-.39-1-.7-1.49-1.11h3a13.23 13.23 0 001.78-.05 5.06 5.06 0 00.46-1.13c.33-1 .62-2.1 1.05-3.11.08.77 0 1.55 0 2.32v5.93a3.49 3.49 0 010 .67zm.1 11h3.93a10.22 10.22 0 00-.84.77c-.4.41-.62 1-1 1.38s-.91.5-1.29.87a8.1 8.1 0 00-.77 1c-.07-1.32-.06-2.66-.03-3.99zm8.76 4.4a3.28 3.28 0 01-1.4 2 24 24 0 01-4.59 2.69 14.54 14.54 0 00-1.66.81 6.25 6.25 0 00-1.09 1c-.08-1 0-2.09 0-3.13s-.05-1.95 0-2.92c.36.4.63.92 1.17 1.09a2 2 0 002.12-.39c.66-.68.94-1.62 1.55-2.33a2.61 2.61 0 013.33-.51 1.78 1.78 0 01.57 1.72z"/>
    <path fill="#3e529b" d="M30.06 84.64a12.68 12.68 0 002.38 2.42 7.81 7.81 0 011.18 1.5v-9.64a5.65 5.65 0 01-1 1 11.44 11.44 0 00-2.59 2.56 2 2 0 00.03 2.16zm19.08-8.85h3.22v-.32a6.22 6.22 0 01-1.52-.13.94.94 0 01-.65-.52 3.16 3.16 0 01-.19-1.13v-6.22h10.2v6.22a3 3 0 01-.17 1.18.92.92 0 01-.65.52 6.17 6.17 0 01-1.52.13c-.05 0-.08 0-.08.16s0 .16.08.16h6.39c.05 0 .08 0 .08-.16s0-.16-.08-.16a6 6 0 01-1.49-.13.92.92 0 01-.65-.52 2.94 2.94 0 01-.18-1.18V61.38a2.85 2.85 0 01.18-1.17 1 1 0 01.65-.52 5.89 5.89 0 011.49-.14c.05 0 .08-.06.08-.16s0-.16-.08-.16h-1.31c-.74 0-1.35.05-1.83.05s-1.19 0-2-.05h-1.25c-.05 0-.08.05-.08.16s0 .16.08.16a5.08 5.08 0 011.52.16 1 1 0 01.65.54 3 3 0 01.17 1.18v5.48H50v-5.48a3.16 3.16 0 01.17-1.18 1 1 0 01.67-.54 5 5 0 011.5-.16v-.32h-1.28c-.78 0-1.43.05-1.94.05s-1 0-1.78-.05h-1.35s-.06.05-.06.16 0 .16.06.16a5.86 5.86 0 011.48.14 1 1 0 01.65.52 2.85 2.85 0 01.18 1.17v12.31a2.94 2.94 0 01-.18 1.18.92.92 0 01-.66.52 6.2 6.2 0 01-1.5.13v.32h1.33zm22.3.05s.08 0 .08-.16 0-.16-.08-.16a5.85 5.85 0 01-1.44-.13.87.87 0 01-.62-.52 3.2 3.2 0 01-.16-1.18V61.43a3.16 3.16 0 01.17-1.18 1 1 0 01.64-.54 4.69 4.69 0 011.45-.16s.08-.06.08-.16 0-.16-.08-.16h-1.25c-.75 0-1.38.05-1.91.05s-1.09 0-1.84-.05h-1.3s-.08.05-.08.16 0 .16.08.16a5.71 5.71 0 011.47.14 1 1 0 01.64.52 2.88 2.88 0 01.17 1.17v12.31a3 3 0 01-.17 1.18.93.93 0 01-.64.52 5.82 5.82 0 01-1.47.13s-.08 0-.08.16 0 .16.08.16h5.02c.28-.01.71 0 1.24 0zm1.01-16.45v.16a5.8 5.8 0 011.48.14.94.94 0 01.62.52 3.1 3.1 0 01.16 1.17v12.31a3.2 3.2 0 01-.16 1.18.89.89 0 01-.62.52 5.91 5.91 0 01-1.48.13v.32h7.15s.08 0 .08-.16 0-.16-.08-.16a9.26 9.26 0 01-2.06-.16 1.37 1.37 0 01-.88-.54 2.59 2.59 0 01-.22-1.24V61.43a3.24 3.24 0 01.18-1.28.93.93 0 01.61-.5 6.6 6.6 0 011.39-.1 3.83 3.83 0 012.92 1.21 4.62 4.62 0 011.14 3.31 4.3 4.3 0 01-1.21 3.29 4.47 4.47 0 01-3.92 1h-.09a.32.32 0 000 .16c0 .09 0 .13.08.13a5.15 5.15 0 001.3.14 6.91 6.91 0 002.78-.59 5.32 5.32 0 002.21-1.78 5 5 0 00.86-3 3.84 3.84 0 00-1.48-3.32 6.42 6.42 0 00-3.92-1.09H77.1c-.55.05-1 .08-1.49.08s-1 0-1.78-.05H72.5s-.05.24-.05.35zm11.33 15.85a2.55 2.55 0 01-1.26.28c-.09 0-.13 0-.13.16s0 .16.13.16h1.33c.53 0 1.13-.06 1.59-.06s1.08 0 1.76.06 1.06 0 1.38 0c.09 0 .13 0 .13-.16s0-.16-.13-.16a3.85 3.85 0 01-2-.39 1.29 1.29 0 01-.58-1.21 4.13 4.13 0 01.38-1.46L88 68.53h6.33l2.36 5a3.29 3.29 0 01.35 1.15.64.64 0 01-.46.63 3.88 3.88 0 01-1.43.19c-.07 0-.11 0-.11.16s0 .16.11.16h1.3c.57 0 1.1-.06 1.49-.06h.44c0 .06 0 .1.12.1h2.55c.05 0 .08 0 .09-.1h.28c.5 0 1.08 0 1.76.06s1.06 0 1.38 0c.09 0 .13 0 .13-.16s0-.16-.13-.16a3.92 3.92 0 01-2-.39 1.3 1.3 0 01-.65-1.21 4.3 4.3 0 01.37-1.46l1.72-3.91h6.32l2.37 5a3.22 3.22 0 01.34 1.15.64.64 0 01-.45.63 3.88 3.88 0 01-1.43.19c-.07 0-.11 0-.11.16s0 .16.11.16h1.3c.57 0 1.1-.06 1.49-.06s.83 0 1.54.06 1.23 0 1.57 0c.07 0 .1 0 .1-.16s0-.16-.1-.16a2 2 0 01-1.52-.68A10.79 10.79 0 01114 72.2L107.74 59c0-.05-.07-.08-.16-.08a.23.23 0 00-.19.08l-5.6 13.23a13.51 13.51 0 01-1 2 3.06 3.06 0 01-.86.89 3.25 3.25 0 01-.35-.31A11.13 11.13 0 0198 72.2L91.74 59c0-.05-.07-.08-.16-.08a.19.19 0 00-.18.08l-5.61 13.22a12.72 12.72 0 01-1 2 2.87 2.87 0 01-1.01 1.02zM107 61.43l3.1 6.57h-5.87zm-16 0L94.11 68h-5.88zM50.64 78.36a.26.26 0 01.18-.14 1.35 1.35 0 01.41 0v-.05c0-.05 0 0 0 0h-1.76v.05a1.47 1.47 0 01.42 0 .28.28 0 01.18.15.87.87 0 010 .33v1.51H47.3V78.7a.71.71 0 01.05-.33.28.28 0 01.18-.15 1.44 1.44 0 01.41 0v-.05c0-.05 0 0 0 0h-1.75v.05a1.39 1.39 0 01.41 0 .26.26 0 01.18.14.85.85 0 010 .32v3.4a.87.87 0 010 .33.24.24 0 01-.18.14 1.47 1.47 0 01-.42 0h1.76a1.35 1.35 0 01-.41 0 .24.24 0 01-.18-.14.71.71 0 01-.05-.33v-1.71h2.82v1.71a.87.87 0 010 .33.24.24 0 01-.18.14 1.47 1.47 0 01-.42 0h1.76a1.35 1.35 0 01-.41 0 .24.24 0 01-.18-.14.71.71 0 010-.33v-3.4a.69.69 0 01-.05-.32zm3.54 3.93a2 2 0 01-.36.18 1 1 0 01-.38.06 1 1 0 01-.84-.4 1.66 1.66 0 01-.3-1v-.27h1.89a.53.53 0 000-.14.77.77 0 00-.85-.84 1.53 1.53 0 00-1.34.78 1.57 1.57 0 00-.21.8 1.66 1.66 0 00.16.69 1.36 1.36 0 00.46.52 1.3 1.3 0 00.73.2 1.56 1.56 0 001.07-.43l-.03-.15zm-1.63-2.15a.7.7 0 01.52-.21.53.53 0 01.44.19.86.86 0 01.16.57h-1.39a1 1 0 01.27-.55zm3.08 1.39a1.69 1.69 0 00-.58.31.51.51 0 00-.18.38.5.5 0 00.15.37.61.61 0 00.42.14 1 1 0 00.3 0 1.45 1.45 0 00.32-.17l.38-.25a1 1 0 00.1.35c.05.09.1.13.16.13h.06l.76-.36a.89.89 0 01-.36.1.23.23 0 01-.22-.12.83.83 0 01-.07-.37v-1.53a.88.88 0 00-.15-.55.56.56 0 00-.45-.19 1.62 1.62 0 00-.57.12 2.29 2.29 0 00-.54.29.47.47 0 00-.23.36.22.22 0 00.06.15.25.25 0 00.18.07.23.23 0 00.2-.09.44.44 0 00.08-.22 1 1 0 01.17-.37.46.46 0 01.38-.17c.31 0 .46.28.46.82v.5zm.8.59l-.31.18a.7.7 0 01-.35.12.37.37 0 01-.29-.12.41.41 0 01-.12-.3.37.37 0 01.09-.25.71.71 0 01.3-.19l.68-.26zm2.77.52a.71.71 0 01-.29 0 .22.22 0 01-.13-.15 1.13 1.13 0 010-.32v-4.76h-.08l-.94.45a.86.86 0 01.34-.1.18.18 0 01.18.12 1.07 1.07 0 010 .38v3.79a.85.85 0 010 .32.2.2 0 01-.13.15.71.71 0 01-.29 0h1.35s-.01.14-.01.12zm2.5-.33a1 1 0 01-.59.2.53.53 0 01-.58-.59v-1.83a5.23 5.23 0 011 .11h.06a.5.5 0 000-.12.22.22 0 000-.12v-.06c-.43.05-.77.07-1 .08v-.55h-.11a.58.58 0 01-.21.4.73.73 0 01-.48.16v.05a.79.79 0 01.25 0 .16.16 0 01.1.11.91.91 0 010 .27v1.73a.53.53 0 00.2.46.9.9 0 00.51.14 1.13 1.13 0 00.45-.09 2.09 2.09 0 00.49-.3zm3.42.24a.22.22 0 01-.12-.15.85.85 0 010-.32v-1.42a.89.89 0 00-.22-.66.83.83 0 00-.62-.23 1.19 1.19 0 00-.58.15 2 2 0 00-.55.48v-3h-.07l-.93.45a.91.91 0 01.34-.1.17.17 0 01.18.12.88.88 0 01.05.38v3.79a1.22 1.22 0 010 .32.25.25 0 01-.13.15.8.8 0 01-.3 0h1.34a.8.8 0 01-.3 0 .25.25 0 01-.21-.11 1.22 1.22 0 010-.32v-1.56a1.46 1.46 0 01.42-.33 1 1 0 01.46-.12.63.63 0 01.51.2 1.05 1.05 0 01.17.65v1.16a.85.85 0 010 .32.22.22 0 01-.13.15.71.71 0 01-.29 0h1.33a.71.71 0 01-.35 0zm3.68-4.18a.28.28 0 01.18-.15 1.32 1.32 0 01.4 0v-.05c0-.05 0 0 0 0h-1.74v.05a1.44 1.44 0 01.41 0 .27.27 0 01.17.14.85.85 0 010 .32v3.4a.87.87 0 010 .33.24.24 0 01-.17.14 1.44 1.44 0 01-.41 0h1.74a1.39 1.39 0 01-.41 0 .24.24 0 01-.17-.14.92.92 0 010-.33V78.7a.92.92 0 010-.33zm3.66 4.04a.23.23 0 01-.13.14.71.71 0 01-.29 0h1.33a.77.77 0 01-.3 0 .26.26 0 01-.13-.14 1.31 1.31 0 010-.33v-1.43a.9.9 0 00-.22-.67.85.85 0 00-.63-.23 1.16 1.16 0 00-.57.15 2.36 2.36 0 00-.55.48 1 1 0 00-.08-.43c0-.11-.09-.17-.14-.17l-.85.4a1.43 1.43 0 01.4-.11.22.22 0 01.2.11.78.78 0 01.06.36v1.45a.92.92 0 010 .33.21.21 0 01-.12.14.8.8 0 01-.3 0h1.33a.71.71 0 01-.29 0 .2.2 0 01-.13-.14 1.31 1.31 0 010-.33v-1.48a1.24 1.24 0 01.42-.34 1 1 0 01.46-.12.61.61 0 01.51.21 1 1 0 01.16.64v1.18a1.31 1.31 0 01-.14.33zm2.39.21a.76.76 0 01-.52-.19 1.29 1.29 0 01-.36-.56v.57a.1.1 0 000 .09 1.16 1.16 0 00.7.22 1.09 1.09 0 00.76-.26.81.81 0 00.28-.63.62.62 0 00-.1-.37.75.75 0 00-.25-.25 3.1 3.1 0 00-.4-.23 2.44 2.44 0 01-.49-.32.53.53 0 01-.17-.41.37.37 0 01.11-.29.38.38 0 01.29-.1.9.9 0 01.64.29.44.44 0 01.12.29V80a1.32 1.32 0 00-1.24.1.69.69 0 00-.3.6.74.74 0 00.08.3.82.82 0 00.24.25 3.19 3.19 0 00.39.22 1.89 1.89 0 01.49.31.59.59 0 01.18.43.4.4 0 01-.11.34.53.53 0 01-.34.07zm3.9.13l.86-.41a1.1 1.1 0 01-.39.1.2.2 0 01-.2-.11.8.8 0 010-.36v-2h-.05l-.82.36a.6.6 0 01.25-.07.18.18 0 01.18.12 1.47 1.47 0 010 .42V82a1.41 1.41 0 01-.44.33 1.06 1.06 0 01-.47.12c-.42 0-.62-.28-.62-.85v-1.76l-.82.36a.56.56 0 01.25-.07c.08 0 .13 0 .17.13a1.28 1.28 0 010 .41v1.13a1 1 0 00.2.67.75.75 0 00.58.23 1.26 1.26 0 00.59-.15 2 2 0 00.57-.48 1.31 1.31 0 00.07.44c0 .12.09.17.14.17zm2.42-2.58a.3.3 0 01.2-.08.32.32 0 01.14 0l.13.08a.33.33 0 00.11.08.2.2 0 00.11 0 .21.21 0 00.18-.07.24.24 0 00.07-.16.25.25 0 00-.15-.21.59.59 0 00-.31-.09.56.56 0 00-.34.13 3 3 0 00-.48.48 1 1 0 00-.07-.43c-.05-.11-.09-.17-.14-.17l-.85.4a1.43 1.43 0 01.4-.11.22.22 0 01.2.11.78.78 0 01.06.36v1.45a.92.92 0 010 .33.2.2 0 01-.13.14.71.71 0 01-.29 0h1.59a1.76 1.76 0 01-.46 0 .31.31 0 01-.2-.14.69.69 0 01-.06-.33v-1.43a3.44 3.44 0 01.29-.34zm4.05 2.11a.89.89 0 01-.36.1.23.23 0 01-.22-.12.71.71 0 01-.07-.37v-1.38a.88.88 0 00-.15-.55.58.58 0 00-.46-.19 1.61 1.61 0 00-.56.12 2.59 2.59 0 00-.55.29.48.48 0 00-.22.36.22.22 0 00.06.15.25.25 0 00.18.07.23.23 0 00.2-.09.56.56 0 00.08-.22.84.84 0 01.17-.37.46.46 0 01.38-.17c.31 0 .46.28.46.82v.5l-.81.3a1.79 1.79 0 00-.58.31.53.53 0 00-.17.38.5.5 0 00.15.37.61.61 0 00.42.14.93.93 0 00.29 0 1.49 1.49 0 00.33-.17l.38-.25a.81.81 0 00.09.35c0 .09.11.13.17.13h.06l.76-.36zm-1.06-.16l-.31.18a.7.7 0 01-.35.12.41.41 0 01-.3-.12.44.44 0 01-.11-.3.37.37 0 01.09-.25.71.71 0 01.3-.19l.68-.26zm4.44.43a.21.21 0 01-.12-.14.92.92 0 010-.33v-1.43a.9.9 0 00-.22-.67.84.84 0 00-.63-.23 1.18 1.18 0 00-.57.15 2.36 2.36 0 00-.55.48 1 1 0 00-.08-.43c0-.11-.09-.17-.14-.17l-.85.4a1.43 1.43 0 01.4-.11.22.22 0 01.2.11.78.78 0 01.06.36v1.45a1.31 1.31 0 010 .33.26.26 0 01-.13.14.77.77 0 01-.3 0H87a.71.71 0 01-.29 0 .2.2 0 01-.13-.14 1.31 1.31 0 010-.33v-1.48a1.24 1.24 0 01.42-.34 1 1 0 01.46-.12.61.61 0 01.51.21 1 1 0 01.16.64v1.18a1.31 1.31 0 010 .33.2.2 0 01-.13.14.71.71 0 01-.29 0h1.19a.8.8 0 01-.3 0zm2.72.11a1.74 1.74 0 00.52-.33 1.16 1.16 0 01-.75.24 1.07 1.07 0 01-.92-.4 1.56 1.56 0 01-.31-1 1.43 1.43 0 01.23-.85.73.73 0 01.64-.32.58.58 0 01.27 0 .72.72 0 01.2.22.38.38 0 00.33.24.23.23 0 00.18-.07.2.2 0 00.07-.16c0-.13-.09-.24-.26-.32a1.32 1.32 0 00-.6-.13 1.67 1.67 0 00-1.36.72 1.41 1.41 0 00-.24.82 1.53 1.53 0 00.16.7 1.24 1.24 0 00.48.54 1.42 1.42 0 00.8.21 1.47 1.47 0 00.56-.11zm3.3-1.85a.06.06 0 00.06 0 .46.46 0 000-.14.83.83 0 00-.22-.62.85.85 0 00-.63-.22 1.53 1.53 0 00-.79.21 1.61 1.61 0 00-.56.57 1.67 1.67 0 00-.2.8 1.52 1.52 0 00.16.69 1.26 1.26 0 00.45.52 1.33 1.33 0 00.73.2 1.56 1.56 0 001.07-.43 2.35 2.35 0 01-.35.18 1.12 1.12 0 01-.38.06 1 1 0 01-.85-.4 1.66 1.66 0 01-.3-1v-.27zm-1.54-.67a.7.7 0 01.52-.21.55.55 0 01.45.19.92.92 0 01.16.57h-1.4a1.12 1.12 0 01.27-.55zm6.47 2.54a2.66 2.66 0 01-.57 0 .41.41 0 01-.25-.15.74.74 0 01-.06-.34V78.7a1 1 0 010-.36.25.25 0 01.17-.13 1.74 1.74 0 01.38 0 1.07 1.07 0 01.81.33 1.3 1.3 0 01.32.92 1.18 1.18 0 01-.34.91 1.13 1.13 0 01-.82.31 1.09 1.09 0 01-.26 0 1.61 1.61 0 00.35 0 1.88 1.88 0 00.77-.17 1.39 1.39 0 00.61-.49 1.34 1.34 0 00.24-.81 1.08 1.08 0 00-.41-.92 1.77 1.77 0 00-1.08-.3h-1.88v.05a1.39 1.39 0 01.41 0 .27.27 0 01.17.14.89.89 0 010 .32v3.4a.92.92 0 010 .33.24.24 0 01-.17.14 1.39 1.39 0 01-.41 0h2zm4.86-.62a1.41 1.41 0 00.22-.8 1.62 1.62 0 00-.18-.74A1.4 1.4 0 00104 80a1.38 1.38 0 00-.76-.21 1.8 1.8 0 00-.74.16 1.43 1.43 0 00-.59.5 1.46 1.46 0 00-.23.82 1.84 1.84 0 00.17.77 1.41 1.41 0 00.51.57 1.36 1.36 0 00.75.2 1.65 1.65 0 00.77-.18 1.46 1.46 0 00.53-.57zm-.5.29a.76.76 0 01-.63.29.92.92 0 01-.59-.22 1.37 1.37 0 01-.41-.6 2.18 2.18 0 01-.15-.82 1.29 1.29 0 01.22-.82.7.7 0 01.61-.29 1 1 0 01.6.2 1.34 1.34 0 01.42.56 2.1 2.1 0 01.15.82 1.5 1.5 0 01-.22.88zm3.39-2.11a.24.24 0 00.07-.16.25.25 0 00-.15-.21.59.59 0 00-.31-.09.56.56 0 00-.34.13 3 3 0 00-.47.48 1 1 0 00-.1-.39c0-.11-.09-.17-.14-.17l-.85.4a1.43 1.43 0 01.4-.11.22.22 0 01.2.11.78.78 0 01.06.36v1.45a.92.92 0 010 .33.21.21 0 01-.12.14.8.8 0 01-.3 0h1.59a1.76 1.76 0 01-.46 0 .31.31 0 01-.2-.14.71.71 0 01-.05-.33v-1.53a2.72 2.72 0 01.33-.34.3.3 0 01.2-.08.29.29 0 01.14 0l.13.08a.33.33 0 00.11.08.2.2 0 00.11 0 .21.21 0 00.15-.01zm2.46 2.07a1 1 0 01-.59.2.59.59 0 01-.43-.15.57.57 0 01-.15-.44v-1.83a5.23 5.23 0 011 .11h.06a.25.25 0 000-.12.41.41 0 000-.12v-.06c-.43.05-.77.07-1 .08v-.55h-.06a.58.58 0 01-.21.4.73.73 0 01-.48.16v.05a.79.79 0 01.25 0 .16.16 0 01.1.11.82.82 0 010 .27v1.73a.52.52 0 00.19.46.93.93 0 00.51.14 1.13 1.13 0 00.45-.09 2.09 2.09 0 00.49-.3zm2.88-.03a.89.89 0 01-.36.1.23.23 0 01-.22-.12.71.71 0 01-.07-.37v-1.38a.88.88 0 00-.15-.55.59.59 0 00-.46-.19 1.61 1.61 0 00-.56.12 2.59 2.59 0 00-.55.29.48.48 0 00-.22.36.22.22 0 00.06.15.25.25 0 00.18.07.23.23 0 00.2-.09.56.56 0 00.08-.22.84.84 0 01.17-.37.46.46 0 01.38-.17c.31 0 .46.28.46.82v.5l-.81.3a1.79 1.79 0 00-.58.31.53.53 0 00-.17.38.5.5 0 00.15.37.61.61 0 00.42.14.93.93 0 00.29 0 1.49 1.49 0 00.33-.17l.38-.25a.81.81 0 00.09.35c0 .09.11.13.17.13h.06l.76-.36zm-1.06-.16l-.31.18a.7.7 0 01-.35.12.41.41 0 01-.3-.12.44.44 0 01-.11-.3.37.37 0 01.09-.25.71.71 0 01.3-.19l.68-.26zm3.98-2.22a1.2 1.2 0 00-.59-.15 1.24 1.24 0 00-.63.17 3.25 3.25 0 00-.56.47v-3h-.08l-.92.45a1 1 0 01.33-.09.2.2 0 01.19.11 1.18 1.18 0 01.05.39v3.62a.82.82 0 01-.09.42 1.42 1.42 0 01-.33.3l.56-.27a1.59 1.59 0 001 .32 1.66 1.66 0 00.78-.19 1.41 1.41 0 00.6-.56 1.69 1.69 0 00.24-.91 1.57 1.57 0 00-.17-.75 1.12 1.12 0 00-.38-.33zm-.13 2.41a.77.77 0 01-.66.33 1.21 1.21 0 01-.44-.1.94.94 0 01-.39-.3.88.88 0 01-.16-.53v-1.2a2.45 2.45 0 01.47-.38 1 1 0 01.48-.14.81.81 0 01.68.35 1.67 1.67 0 01.26 1 1.63 1.63 0 01-.24.97zm1.76-3.47a.36.36 0 00.24.08.28.28 0 00.31-.31.34.34 0 00-.08-.23.32.32 0 00-.23-.08.36.36 0 00-.24.08.34.34 0 00-.08.23.32.32 0 00.08.23zm.68 3.71a.24.24 0 01-.14-.14 1.31 1.31 0 010-.33v-2.29l-1 .44a1 1 0 01.33-.1.2.2 0 01.19.12.91.91 0 01.06.38V82a1.13 1.13 0 010 .32.21.21 0 01-.14.15.71.71 0 01-.29 0h1.34a.71.71 0 01-.35.08zm1.91 0a.28.28 0 01-.13-.15 1.22 1.22 0 010-.32v-4.67h-.08l-.94.45a.87.87 0 01.33-.1.2.2 0 01.19.12 1.07 1.07 0 010 .38v3.79a.85.85 0 010 .32.22.22 0 01-.13.15.71.71 0 01-.29 0h1.35a.77.77 0 01-.3.03zm1.55-3.63a.28.28 0 00.31-.31.34.34 0 00-.08-.23.32.32 0 00-.23-.08.36.36 0 00-.24.08.34.34 0 00-.08.23.32.32 0 00.08.23.36.36 0 00.24.08zm.44 3.63a.24.24 0 01-.14-.14 1.31 1.31 0 010-.33v-2.29l-1 .44a.91.91 0 01.33-.1.2.2 0 01.19.12.91.91 0 01.06.38V82a1.13 1.13 0 010 .32.23.23 0 01-.14.15.71.71 0 01-.29 0h1.34a.71.71 0 01-.35.08zm2.89-.22a1 1 0 01-.59.2.59.59 0 01-.43-.15.57.57 0 01-.15-.44v-1.85a5.23 5.23 0 011 .11h.06a.25.25 0 000-.12.41.41 0 000-.12v-.06c-.43.05-.77.07-1 .08v-.55h-.11a.58.58 0 01-.21.4.73.73 0 01-.48.16v.05a.79.79 0 01.25 0 .16.16 0 01.1.11.82.82 0 010 .27v1.73a.51.51 0 00.2.46.87.87 0 00.5.14 1.13 1.13 0 00.45-.09 2.09 2.09 0 00.49-.3s-.07-.01-.08-.03z"/>
    <path fill="#3e529b" d="M128 79.84h-1.24a1.11 1.11 0 01.44.07.25.25 0 01.13.24.94.94 0 01-.06.28l-.59 1.69-1-2a.35.35 0 010-.12c0-.11.14-.17.42-.17h-1.24a.3.3 0 01.22.1 2.49 2.49 0 01.26.42l1.12 2.29c-.17.42-.31.76-.43 1a2.13 2.13 0 01-.33.52.5.5 0 01-.34.15.43.43 0 01-.17 0h-.09a.42.42 0 00-.13-.07.44.44 0 00-.17 0 .25.25 0 00-.16.06.2.2 0 00-.06.16.24.24 0 00.1.21.45.45 0 00.27.07 1 1 0 00.58-.17A1.8 1.8 0 00126 84a7.52 7.52 0 00.51-1.11l.89-2.39a1.18 1.18 0 01.25-.43.45.45 0 01.32-.14l.03-.09zm-77.64 9.83a6.64 6.64 0 01-.84-.52A4.21 4.21 0 0050 88a1.06 1.06 0 01.1-.25.35.35 0 01.18-.13 1.13 1.13 0 01.37 0h-1.5a.5.5 0 01.41.13.64.64 0 01.11.4 2 2 0 01-.26 1 6.72 6.72 0 01-1.56-1.64l.15-.1a4.84 4.84 0 00.56-.41 1.72 1.72 0 00.36-.4 1 1 0 00.14-.51.62.62 0 00-.25-.56 1.09 1.09 0 00-.61-.17 1.23 1.23 0 00-.63.16 1 1 0 00-.43.42 1.11 1.11 0 00-.16.59 1.94 1.94 0 00.22.8 2.36 2.36 0 00.21.36 4 4 0 00-.75.68 1.06 1.06 0 00-.26.73 1 1 0 00.15.53A1.13 1.13 0 0047 90a1.72 1.72 0 00.76.15 2 2 0 001.48-.61 2 2 0 001 .52H51a2.48 2.48 0 01-.64-.39zM48 85.43a.58.58 0 01.46.19.68.68 0 01.18.5 1 1 0 01-.22.64 2.94 2.94 0 01-.62.58 2.4 2.4 0 01-.38-1.21c-.01-.46.18-.7.58-.7zm.1 4.46a1.33 1.33 0 01-.63-.15 1.24 1.24 0 01-.44-.41 1.16 1.16 0 010-1.14 2 2 0 01.45-.48 6.49 6.49 0 00.7.84 7.68 7.68 0 00.85.77l.13.11a1.4 1.4 0 01-1.07.46zm10.18-.14a3.2 3.2 0 01-.42-.73l-1.74-3.65L54.48 89a3.78 3.78 0 01-.28.57.86.86 0 01-.27.27.78.78 0 01-.35.07h1.67a1.1 1.1 0 01-.54-.1.36.36 0 01-.18-.34 1.35 1.35 0 01.1-.4L55.1 88h1.74l.66 1.39a.92.92 0 01.09.32.17.17 0 01-.12.17 1 1 0 01-.4.05h1.63a.58.58 0 01-.42-.18zm-3.12-1.89l.76-1.86.86 1.82zm6.3 1.75a1.16 1.16 0 01-.75.24 1.12 1.12 0 01-.93-.39 1.65 1.65 0 01-.31-1 1.45 1.45 0 01.23-.85.77.77 0 01.65-.32.55.55 0 01.31.07.74.74 0 01.21.22.38.38 0 00.32.25.29.29 0 00.19-.07.23.23 0 00.07-.17c0-.13-.09-.23-.27-.32a1.45 1.45 0 00-.59-.13 1.61 1.61 0 00-.76.19 1.51 1.51 0 00-.61.54 1.45 1.45 0 00-.23.81 1.66 1.66 0 00.15.7 1.31 1.31 0 00.48.54 1.44 1.44 0 00.8.21A1.32 1.32 0 0061 90a1.88 1.88 0 00.52-.33zm3.2 0a1.16 1.16 0 01-.75.24 1.09 1.09 0 01-.92-.39 1.59 1.59 0 01-.31-1 1.38 1.38 0 01.23-.85.75.75 0 01.64-.32.58.58 0 01.32.07.72.72 0 01.2.22c.09.16.19.25.33.25a.27.27 0 00.18-.07.23.23 0 00.07-.17c0-.13-.09-.23-.27-.32a1.38 1.38 0 00-.59-.13 1.61 1.61 0 00-.76.19 1.48 1.48 0 00-.6.54 1.38 1.38 0 00-.24.81 1.53 1.53 0 00.16.7 1.29 1.29 0 00.47.54 1.47 1.47 0 00.8.21 1.32 1.32 0 00.57-.11 1.74 1.74 0 00.52-.33zm3.18-2.3a1.25 1.25 0 00-.75-.22 1.78 1.78 0 00-.74.17 1.36 1.36 0 00-.59.5 1.34 1.34 0 00-.24.81 1.65 1.65 0 00.18.77 1.46 1.46 0 00.5.57 1.38 1.38 0 00.76.21 1.57 1.57 0 00.77-.19 1.39 1.39 0 00.57-.53 1.48 1.48 0 00.21-.79 1.58 1.58 0 00-.17-.74 1.35 1.35 0 00-.5-.56zm0 2.38a.73.73 0 01-.62.29.91.91 0 01-.6-.22 1.56 1.56 0 01-.41-.6 2.39 2.39 0 01-.14-.82 1.36 1.36 0 01.21-.82.74.74 0 01.62-.29 1 1 0 01.6.2 1.45 1.45 0 01.41.57 2.09 2.09 0 01.15.81 1.41 1.41 0 01-.27.88zm4.57-.09a1.17 1.17 0 01-.39.11.22.22 0 01-.2-.11 1.06 1.06 0 010-.36v-2.06l-.81.37a.8.8 0 01.25-.07.18.18 0 01.18.13 1.35 1.35 0 010 .41v1.28a1.45 1.45 0 01-.44.34 1.06 1.06 0 01-.47.12c-.41 0-.62-.29-.62-.85v-1.73l-.82.37a.73.73 0 01.25-.07c.08 0 .13 0 .17.13a1.33 1.33 0 010 .41v1.13a1 1 0 00.2.67.75.75 0 00.58.23 1.26 1.26 0 00.59-.15 2.15 2.15 0 00.57-.47 1.31 1.31 0 00.07.44c0 .11.09.17.14.17l.86-.4zm3.4.29a.23.23 0 01-.13-.14 1.27 1.27 0 010-.32V88a.92.92 0 00-.22-.67.85.85 0 00-.63-.23 1.07 1.07 0 00-.57.16 2.09 2.09 0 00-.55.47 1.06 1.06 0 00-.08-.43c0-.11-.09-.17-.14-.17l-.85.4a1.43 1.43 0 01.4-.11.22.22 0 01.2.11.84.84 0 01.06.36v1.46a.89.89 0 010 .32.19.19 0 01-.12.14.8.8 0 01-.3 0h1.33a.71.71 0 01-.29 0 .19.19 0 01-.13-.14 1.27 1.27 0 010-.32v-1.5a1.34 1.34 0 01.42-.33.87.87 0 01.46-.13.61.61 0 01.51.21 1 1 0 01.16.64v1.19a1.27 1.27 0 010 .32.2.2 0 01-.13.14.71.71 0 01-.29 0h1.33a.77.77 0 01-.44 0zm2.65-.24a.89.89 0 01-.58.2.57.57 0 01-.43-.14.61.61 0 01-.15-.45v-1.83a4.46 4.46 0 011 .12v-.06a.27.27 0 000-.12.5.5 0 000-.12l-1 .07v-.54h-.06c-.06 0 0 0 0 0a.62.62 0 01-.22.4.73.73 0 01-.48.15.69.69 0 01.25 0 .13.13 0 01.1.1.91.91 0 010 .27v1.73a.53.53 0 00.2.46.87.87 0 00.5.14A1.22 1.22 0 0078 90a2.28 2.28 0 00.48-.3zm2.88-.02a1 1 0 01-.36.09.24.24 0 01-.22-.12.83.83 0 01-.06-.37v-1.37a.86.86 0 00-.16-.55.54.54 0 00-.45-.2 1.62 1.62 0 00-.57.12 2 2 0 00-.54.3.46.46 0 00-.23.35.2.2 0 00.06.15.21.21 0 00.18.07.23.23 0 00.2-.09.4.4 0 00.08-.21 1 1 0 01.17-.38.46.46 0 01.38-.17c.31 0 .46.28.46.83v.5l-.8.3a1.69 1.69 0 00-.58.31.5.5 0 000 .74.56.56 0 00.42.14.76.76 0 00.3 0 1.45 1.45 0 00.32-.17l.38-.25a.91.91 0 00.1.35c0 .09.1.13.17.13l.76-.36zm-1.06-.17l-.3.19a.85.85 0 01-.36.11.37.37 0 01-.29-.12.41.41 0 01-.12-.3.38.38 0 01.09-.25.82.82 0 01.3-.19l.68-.26zm3.98-2.21a1.08 1.08 0 00-.58-.16 1.11 1.11 0 00-.63.18 2.58 2.58 0 00-.56.46v-3l-.91.44a1 1 0 01.33-.09.2.2 0 01.19.12.88.88 0 01.06.38v3.63a.75.75 0 01-.1.41 1.11 1.11 0 01-.33.31l.55-.26a1.68 1.68 0 001 .32 1.8 1.8 0 00.79-.19 1.63 1.63 0 00.6-.57 1.76 1.76 0 00.23-.91 1.65 1.65 0 00-.16-.74 1 1 0 00-.48-.33zm-.12 2.4a.79.79 0 01-.67.33 1 1 0 01-.44-.1.94.94 0 01-.39-.3.86.86 0 01-.15-.53v-1.2a2.53 2.53 0 01.47-.38.9.9 0 01.47-.13.79.79 0 01.69.35 2.12 2.12 0 010 2zm2.43.24a.2.2 0 01-.13-.14.89.89 0 010-.32v-2.25l-1 .44v.05a.71.71 0 01.33-.1.17.17 0 01.18.11.91.91 0 01.06.38v1.38a.89.89 0 010 .32.2.2 0 01-.13.14.8.8 0 01-.3 0h1.34a.71.71 0 01-.35-.01zm-.21-3.71a.28.28 0 00.08-.23.28.28 0 00-.3-.3.29.29 0 00-.24.08.28.28 0 00-.09.22.29.29 0 00.09.23.29.29 0 00.24.08.27.27 0 00.22-.08zm2.13 3.71a.22.22 0 01-.13-.15 1.05 1.05 0 010-.31v-4.67l-.94.44a1.08 1.08 0 01.34-.1.18.18 0 01.18.12 1.16 1.16 0 010 .38v3.8a.89.89 0 010 .32.19.19 0 01-.13.14.71.71 0 01-.29 0h1.35a.71.71 0 01-.38.03zm1.31-4.16a.28.28 0 00-.09.22.29.29 0 00.09.23.29.29 0 00.24.08.27.27 0 00.22-.08.28.28 0 00.08-.23.28.28 0 00-.3-.3.29.29 0 00-.24.08zm.67 4.16a.2.2 0 01-.13-.14.89.89 0 010-.32v-2.25l-1 .44v.05a.71.71 0 01.33-.1.17.17 0 01.18.11.91.91 0 01.06.38v1.38a.89.89 0 010 .32.2.2 0 01-.13.14.8.8 0 01-.3 0h1.34a.71.71 0 01-.35-.01zm2.89-.22a.89.89 0 01-.58.2.57.57 0 01-.43-.14.61.61 0 01-.15-.45v-1.85a4.46 4.46 0 011 .12l.05-.06a.27.27 0 000-.12.5.5 0 000-.12l-1 .07v-.54h-.06c-.06 0 0 0 0 0a.58.58 0 01-.22.4.72.72 0 01-.47.15.77.77 0 01.25 0 .13.13 0 01.09.1.91.91 0 010 .27v1.73a.53.53 0 00.2.46.88.88 0 00.51.14 1.2 1.2 0 00.45-.09 2.28 2.28 0 00.48-.3s-.11.06-.12.03z"/>
    <path fill="#3e529b" d="M96.45 87.2h-1a.93.93 0 01.43.07.23.23 0 01.13.23.88.88 0 01-.06.28l-.58 1.69-1-2a.24.24 0 010-.11c0-.12.14-.17.43-.17h-1.26a.29.29 0 01.23.1 2.46 2.46 0 01.25.42l1.12 2.28a10.51 10.51 0 01-.42 1 1.93 1.93 0 01-.34.52.51.51 0 01-.33.16.48.48 0 01-.18 0 .18.18 0 00-.08 0 .7.7 0 00-.14-.08h-.16a.21.21 0 00-.16.06.19.19 0 00-.07.16.23.23 0 00.11.21.45.45 0 00.26.08 1 1 0 00.59-.18 1.68 1.68 0 00.49-.57 7.52 7.52 0 00.51-1.11l.9-2.39a1.13 1.13 0 01.25-.43.4.4 0 01.31-.13zm6.77 2.55a3.14 3.14 0 01-.43-.73l-1.73-3.65h-.05L99.41 89a3 3 0 01-.28.57.86.86 0 01-.27.27.75.75 0 01-.35.07h1.67a1.1 1.1 0 01-.54-.1.36.36 0 01-.18-.34 1.15 1.15 0 01.11-.4L100 88h1.75l.65 1.39a1 1 0 01.1.32.18.18 0 01-.13.17 1 1 0 01-.39.05h1.63a.54.54 0 01-.39-.18zm-3.13-1.89l.76-1.82.86 1.82zm6.38 1.75a1.16 1.16 0 01-.75.24 1.09 1.09 0 01-.92-.39 1.59 1.59 0 01-.31-1 1.45 1.45 0 01.23-.85.76.76 0 01.64-.32.56.56 0 01.32.07.89.89 0 01.21.22.38.38 0 00.32.25.29.29 0 00.19-.07.28.28 0 00.07-.17c0-.13-.09-.23-.27-.32a1.45 1.45 0 00-.59-.13 1.59 1.59 0 00-.76.19 1.51 1.51 0 00-.61.54 1.38 1.38 0 00-.23.81 1.66 1.66 0 00.15.7 1.24 1.24 0 00.48.54 1.42 1.42 0 00.8.21A1.38 1.38 0 00106 90a1.84 1.84 0 00.51-.33zm2.62.04a.9.9 0 01-.59.2.59.59 0 01-.43-.14.61.61 0 01-.15-.45v-1.83a4.48 4.48 0 011 .12v-.06a.27.27 0 000-.12.5.5 0 000-.12c-.43 0-.77.06-1 .07v-.54h-.06a.61.61 0 01-.21.4.73.73 0 01-.48.15.73.73 0 01.25 0 .14.14 0 01.1.1.91.91 0 010 .27v1.73a.51.51 0 00.2.46.87.87 0 00.5.14 1.13 1.13 0 00.45-.09 2.09 2.09 0 00.49-.3z"/>
</svg>
