<svg xmlns="http://www.w3.org/2000/svg" xmlns:xlink="http://www.w3.org/1999/xlink" width="128" height="128">
    <linearGradient id="linear-gradient" x1=".3" y1="63.85" x2="128" y2="63.85" gradientUnits="userSpaceOnUse">
        <stop offset="0" stop-color="#14bcee"/>
        <stop offset="1" stop-color="#2161ad"/>
    </linearGradient>
    <linearGradient id="linear-gradient-2" x1="112.76" y1="63.62" x2="15.48" y2="63.62" xlink:href="#linear-gradient"/>
    <circle cx="64.15" cy="63.85" r="63.85" fill="url(#linear-gradient)"/>
    <circle cx="64.24" cy="63.62" r="49.37" fill="url(#linear-gradient-2)"/>
    <path fill="#fff" d="M25.58 102.2a1.33 1.33 0 01.74.4 1.2 1.2 0 01.41.78 1 1 0 01-.29.74l.27.26a1.21 1.21 0 00.33-.62 1.33 1.33 0 00-.05-.71 2 2 0 00-1.43-1.19 1 1 0 00-.88.3 1 1 0 00-.26.92 3.13 3.13 0 00.43 1 2.73 2.73 0 01.39 1 .71.71 0 01-.22.59.72.72 0 01-.64.22 1.42 1.42 0 01-.76-.42 1.45 1.45 0 01-.47-.83.87.87 0 01.26-.78l-.27-.26a1.2 1.2 0 00-.33.64 1.25 1.25 0 00.1.75 2.1 2.1 0 00.5.71 1.72 1.72 0 001 .54 1 1 0 00.89-.31 1.07 1.07 0 00.28-.52 1.22 1.22 0 000-.62 3.6 3.6 0 00-.41-.87 2.43 2.43 0 01-.36-.87.65.65 0 01.19-.58.69.69 0 01.58-.27zM29.88 106.58a1.56 1.56 0 000-.91 1.76 1.76 0 00-1.38-1.16 1.57 1.57 0 00-.92.16 2.59 2.59 0 00-.86.68l-.29.35a2.19 2.19 0 00-.59 1.45 1.53 1.53 0 00.6 1.22 1.71 1.71 0 00.85.4 1.64 1.64 0 00.91-.16 2.55 2.55 0 00.85-.68l.34-.41a2.39 2.39 0 00.49-.94zm-1.11 1.1a2 2 0 01-1.09.73 1.19 1.19 0 01-1.05-.28 1.23 1.23 0 01-.46-1 2 2 0 01.53-1.13l.29-.35a2 2 0 011.1-.73 1.28 1.28 0 011.5 1.26 2 2 0 01-.52 1.19zM32.54 107.39a1.68 1.68 0 00-.86-.32 1.58 1.58 0 00-.89.23 2.4 2.4 0 00-.79.7l-.34.46a2.55 2.55 0 00-.43 1 1.64 1.64 0 00.06.91 1.53 1.53 0 00.57.7 1.58 1.58 0 001.12.36 1.53 1.53 0 001-.57l-.3-.22a1.36 1.36 0 01-.79.47 1.27 1.27 0 01-.88-.29 1.12 1.12 0 01-.49-.92 1.94 1.94 0 01.43-1.19l.31-.44a2 2 0 011-.8 1.19 1.19 0 011 .2 1.13 1.13 0 01.33 1.63l.3.22a1.47 1.47 0 00-.45-2.11zM36.28 111.25l-.67-.4.21-.35a.76.76 0 01.41-.37.61.61 0 01.5.08 1.37 1.37 0 01.26.2l.18-.24a1.22 1.22 0 00-.3-.24.91.91 0 00-.75-.14 1.08 1.08 0 00-.62.53l-.21.34-.46-.28-.15.25.46.28-1.54 2.55.31.19 1.54-2.55.67.41zM38.66 113a1.35 1.35 0 00-.71-.91 1.42 1.42 0 00-.77-.17 1.29 1.29 0 00-.74.27 1.83 1.83 0 00-.56.66v.07a1.77 1.77 0 00-.22 1.26 1.39 1.39 0 00.72.91 1.53 1.53 0 00.77.18 1.45 1.45 0 00.73-.27 2 2 0 00.57-.67v-.07a1.72 1.72 0 00.21-1.26zm-.52 1.07v.06a1.49 1.49 0 01-.74.73 1 1 0 01-.88 0 1 1 0 01-.52-.71 1.48 1.48 0 01.19-1v-.06a1.58 1.58 0 01.74-.73 1 1 0 01.88 0 1 1 0 01.42.43 1 1 0 01.12.61 1.67 1.67 0 01-.21.69zM40 113.8l.22-.48-.32-.15-1.41 3 .33.16 1-2a1.09 1.09 0 01.54-.35.9.9 0 01.6.07l.22.13.15-.3a.86.86 0 00-.2-.13 1 1 0 00-1.13.05zM45.8 115.8a1.28 1.28 0 00-.27-1.34 1.8 1.8 0 00-.68-.43 1.64 1.64 0 00-1.1-.09 1 1 0 00-.69.62 1 1 0 00.12 1 3.4 3.4 0 00.79.75 2.72 2.72 0 01.73.71.75.75 0 01-.47 1.09 1.36 1.36 0 01-.85-.08 1.44 1.44 0 01-.77-.59.86.86 0 01-.07-.81l-.34-.13a1.1 1.1 0 00-.06.71 1.29 1.29 0 00.38.65 2.11 2.11 0 00.75.46 1.75 1.75 0 001.13.1 1 1 0 00.69-.63 1 1 0 00.06-.59 1.29 1.29 0 00-.28-.56 4.09 4.09 0 00-.72-.63 2.85 2.85 0 01-.68-.66.73.73 0 01.44-1.06 1.3 1.3 0 01.83.08 1.2 1.2 0 01.68.55.91.91 0 010 .79zM47.69 116.2a1.24 1.24 0 00-.74 0 1.47 1.47 0 00-.67.41 2.09 2.09 0 00-.43.76v.13a1.63 1.63 0 00-.07.84 1.5 1.5 0 00.33.71 1.56 1.56 0 00.66.42 1.32 1.32 0 001.28-.21l-.16-.23a1.1 1.1 0 01-1 .15 1 1 0 01-.66-.59 1.4 1.4 0 010-1v-.06l2.23.69.06-.19a1.67 1.67 0 000-1.17 1.17 1.17 0 00-.83-.66zm.48 1.59l-1.88-.58a1.37 1.37 0 01.57-.67.9.9 0 01.75-.08.85.85 0 01.55.48 1.18 1.18 0 01.01.85zM49.79 117.41l.12-.51-.34-.09-.83 3.19.35.09.57-2.18a1 1 0 01.46-.45.91.91 0 01.61 0l.23.08.09-.31a.5.5 0 00-.22-.1 1 1 0 00-1.04.28zM52.06 120.26l-.42-2.92-.36-.08.53 3.46.29.06 1.87-2.95-.37-.08-1.54 2.51zM55 116.77a.25.25 0 00-.19 0 .24.24 0 00-.09.16.22.22 0 000 .18.27.27 0 00.17.1.24.24 0 00.19 0 .21.21 0 00.1-.16.24.24 0 000-.18.29.29 0 00-.18-.1z"/>
    <path fill="#fff" transform="rotate(-80.42 54.473 119.565)" d="M52.84 119.38h3.28v.36h-3.28z"/>
    <path fill="#fff" d="M55.86 119.75a1.64 1.64 0 01.4-1 .9.9 0 01.8-.25.88.88 0 01.6.31.92.92 0 01.2.65h.34a1.18 1.18 0 00-.26-.89 1.32 1.32 0 00-.84-.43 1.28 1.28 0 00-.76.11 1.31 1.31 0 00-.56.51 2.08 2.08 0 00-.27.83v.11a1.84 1.84 0 00.22 1.24 1.28 1.28 0 001 .57 1.33 1.33 0 00.63-.06 1.14 1.14 0 00.5-.32 1 1 0 00.26-.52h-.35a.76.76 0 01-.34.52 1 1 0 01-.66.13.9.9 0 01-.71-.44 1.6 1.6 0 01-.15-1zM60.23 118.53a1.32 1.32 0 00-.72.17 1.48 1.48 0 00-.55.56 1.88 1.88 0 00-.24.84v.13a1.75 1.75 0 00.13.83 1.35 1.35 0 00.49.61 1.43 1.43 0 00.74.26 1.35 1.35 0 001.2-.5l-.22-.19a1 1 0 01-.43.31 1.08 1.08 0 01-.52.08 1 1 0 01-.77-.43 1.38 1.38 0 01-.26-1v-.07l2.33.16v-.2a1.6 1.6 0 00-.27-1.14 1.21 1.21 0 00-.91-.42zm.84 1.48l-2-.14a1.33 1.33 0 01.4-.78.91.91 0 01.7-.25.84.84 0 01.65.34 1.19 1.19 0 01.21.79zM66.81 118.42a1.52 1.52 0 00-.62-.68 1.59 1.59 0 00-.9-.23 1.7 1.7 0 00-.9.27 1.63 1.63 0 00-.58.73 2.44 2.44 0 00-.19 1.07v.42a2.15 2.15 0 00.51 1.48 1.72 1.72 0 002.16.25 1.6 1.6 0 00.58-.72 2.44 2.44 0 00.19-1.07v-.53a2.52 2.52 0 00-.25-.99zm-.44 2.82a1.19 1.19 0 01-1 .48 1.21 1.21 0 01-1-.44 1.92 1.92 0 01-.39-1.23v-.46a2 2 0 01.34-1.28 1.2 1.2 0 011-.47 1.17 1.17 0 011 .43 1.91 1.91 0 01.39 1.24v.49a1.94 1.94 0 01-.34 1.24zM69.14 118.43a1 1 0 00-.87.65v-.52h-.35l.26 3.27h.35l-.17-2.24a1 1 0 01.29-.58.81.81 0 01.55-.23 1 1 0 01.25 0v-.33a.58.58 0 00-.31-.02zM72.06 118.14v.48a1.11 1.11 0 00-1.08-.4 1.13 1.13 0 00-.86.56A2.09 2.09 0 0070 120a2 2 0 00.5 1.18 1.08 1.08 0 001 .33 1.19 1.19 0 001-.61v.41a1.07 1.07 0 01-.16.77 1 1 0 01-.67.36 1.17 1.17 0 01-1-.36l-.18.25a1.35 1.35 0 00.54.34 1.52 1.52 0 00.67.07 1.3 1.3 0 00.9-.49 1.38 1.38 0 00.23-1l-.41-3.19zm-.58 3.13a.81.81 0 01-.75-.27 1.73 1.73 0 01-.38-1 1.8 1.8 0 01.12-1.08.83.83 0 01.66-.45 1 1 0 01.59.09 1 1 0 01.43.43l.19 1.51a1 1 0 01-.86.77zM76.1 120l-.3-1.52a1 1 0 00-.46-.69 1.26 1.26 0 00-.9-.11 1.47 1.47 0 00-.83.45.89.89 0 00-.23.74l.36-.07a.57.57 0 01.16-.5.94.94 0 01.58-.31.84.84 0 01.66.08.71.71 0 01.31.5l.07.36-.64.13a1.94 1.94 0 00-1 .48.87.87 0 00-.25.82.89.89 0 00.41.6 1.1 1.1 0 00.81.11 1.46 1.46 0 00.59-.25 1.26 1.26 0 00.4-.46 1.56 1.56 0 00.16.43l.38-.07a1.83 1.83 0 01-.28-.72zm-.71.46a1.13 1.13 0 01-.6.29.75.75 0 01-.56-.08.59.59 0 01-.29-.41.6.6 0 01.2-.57 1.61 1.61 0 01.8-.36l.64-.12.13.71a1.08 1.08 0 01-.32.53zM78.74 117a1 1 0 00-.84-.09 1.25 1.25 0 00-.55.31 1.3 1.3 0 00-.33.56l-.15-.54-.34.08.82 3.18.35-.09-.56-2.17a1.24 1.24 0 01.23-.65.89.89 0 01.52-.35.74.74 0 01.63.06 1.07 1.07 0 01.34.59l.53 2.09.35-.09-.53-2.09a1.38 1.38 0 00-.47-.8z"/>
    <path fill="#fff" transform="rotate(-16.87 80.484 117.896)" d="M80.31 116.29h.36v3.28h-.36z"/>
    <path fill="#fff" d="M80 115.38a.23.23 0 00-.12-.15.25.25 0 00-.19 0 .23.23 0 00-.17.3.25.25 0 00.11.15.27.27 0 00.2 0 .24.24 0 00.17-.3zM82.31 118.76l1-3.21-.09-.26-2.25.78.1.3 1.82-.63-.99 3.2.09.25 2.43-.84-.1-.29-2.01.7zM87.07 116.46l-.59-1.46a1 1 0 00-.59-.58 1.28 1.28 0 00-.91.07 1.46 1.46 0 00-.72.61.83.83 0 00-.07.76l.33-.13a.57.57 0 01.06-.53 1 1 0 01.5-.42.91.91 0 01.66 0 .7.7 0 01.41.43l.15.34-.61.25a1.9 1.9 0 00-.92.68.91.91 0 00.44 1.36 1.1 1.1 0 00.81 0 1.39 1.39 0 00.53-.36 1.21 1.21 0 00.3-.54 1.93 1.93 0 00.24.39l.36-.14a1.7 1.7 0 01-.38-.73zm-.6.59a1.21 1.21 0 01-.53.41.78.78 0 01-.56 0 .59.59 0 01-.37-.34.64.64 0 01.08-.61 1.68 1.68 0 01.71-.5l.6-.25.28.66a1.09 1.09 0 01-.21.63zM89.15 116a.39.39 0 01-.36 0 .73.73 0 01-.26-.32l-.93-2 .62-.29-.13-.27-.62.29-.35-.76-.33.15.36.76-.55.26.13.27.54-.26.93 2a1 1 0 00.43.51.64.64 0 00.58 0 1.18 1.18 0 00.33-.21l-.14-.26a1.32 1.32 0 01-.25.13zM88.4 111.71a.22.22 0 00-.13.14.25.25 0 000 .19.24.24 0 00.14.12.26.26 0 00.19 0c.07 0 .12-.08.13-.15a.23.23 0 000-.18.24.24 0 00-.14-.12.24.24 0 00-.19 0z"/>
    <path fill="#fff" transform="rotate(-26.94 89.704 114.256)" d="M89.5 112.59h.36v3.28h-.36z"/>
    <path fill="#fff" d="M93.14 112.32a1.76 1.76 0 00-1-.86 1.31 1.31 0 00-1.15.12 1.39 1.39 0 00-.55.55 1.45 1.45 0 00-.17.77 2 2 0 00.26.83v.07a1.82 1.82 0 001 .86 1.46 1.46 0 001.71-.68 1.31 1.31 0 00.16-.76 1.82 1.82 0 00-.26-.84zm-.58 2a1 1 0 01-.88.06 1.49 1.49 0 01-.74-.69v-.06a1.55 1.55 0 01-.23-1 1 1 0 01.51-.72 1 1 0 01.58-.14 1.2 1.2 0 01.58.23 1.7 1.7 0 01.46.53v.06a1.53 1.53 0 01.23 1 1 1 0 01-.51.68zM94.93 109.53a.93.93 0 00-.82.18 1.09 1.09 0 00-.42.46 1.23 1.23 0 00-.14.64l-.31-.46-.29.18 1.78 2.75.31-.19-1.23-1.89a1.3 1.3 0 010-.68.92.92 0 01.39-.5.7.7 0 01.61-.14 1 1 0 01.51.45l1.17 1.8.31-.19-1.18-1.81a1.29 1.29 0 00-.69-.6zM98.73 109a.77.77 0 00-.46 0 2.74 2.74 0 00-.72.23 1.9 1.9 0 01-.68.19.45.45 0 01-.37-.2.5.5 0 01-.07-.46 1 1 0 01.37-.47 1 1 0 01.6-.21.58.58 0 01.48.25l.29-.22a.86.86 0 00-.68-.37 1.33 1.33 0 00-.87.3 1.24 1.24 0 00-.52.7.75.75 0 00.12.71.65.65 0 00.34.26.86.86 0 00.46 0 3 3 0 00.67-.23 1.47 1.47 0 01.68-.18.5.5 0 01.43.22.48.48 0 01.06.47 1 1 0 01-.39.5 1.18 1.18 0 01-.63.25.65.65 0 01-.51-.24l-.29.21a.84.84 0 00.7.36 1.57 1.57 0 00.91-.33 1.48 1.48 0 00.56-.72.77.77 0 00-.13-.73.72.72 0 00-.35-.29z"/>
    <path fill="#fff" transform="rotate(-41.79 101.697 105.81)" d="M101.55 103.2h.31v5.23h-.31z"/>
    <path fill="#fff" d="M106.79 100.77a1.3 1.3 0 00-.64 0 3.13 3.13 0 00-.81.37 2.55 2.55 0 01-.74.33.48.48 0 01-.45-.11.53.53 0 01-.15-.36.94.94 0 01.28-.54.84.84 0 01.56-.32.7.7 0 01.55.2l.51-.56a1.21 1.21 0 00-.65-.32 1.36 1.36 0 00-.74.09 2.06 2.06 0 00-.68.49 1.81 1.81 0 00-.51 1.07 1.11 1.11 0 001.49 1.13 3.3 3.3 0 00.84-.38 2.47 2.47 0 01.73-.33.57.57 0 01.65.59 1 1 0 01-.28.56 1.12 1.12 0 01-.64.38.69.69 0 01-.59-.21l-.52.57a1.23 1.23 0 00.68.32 1.4 1.4 0 00.79-.13 1.92 1.92 0 00.72-.53 1.8 1.8 0 00.54-1.06 1.06 1.06 0 00-.36-.91 1.2 1.2 0 00-.58-.34zM109.39 98.85a1 1 0 01-.2.9.79.79 0 01-.56.32 1 1 0 01-.67-.19l1.34-1.67-.23-.19a1.82 1.82 0 00-1.17-.47 1.28 1.28 0 00-1 .54 1.36 1.36 0 00-.31.73 1.47 1.47 0 00.13.79 2 2 0 00.57.7h.07a1.58 1.58 0 001.18.4 1.5 1.5 0 001.06-.61 1.71 1.71 0 00.34-.67 1.38 1.38 0 000-.7zm-2.16.12a.62.62 0 01.15-.51.59.59 0 01.44-.25.88.88 0 01.56.19h.05l-.88 1.09a1.11 1.11 0 01-.32-.49zM109.52 95.83a1.5 1.5 0 01.2-.23l-.56-.41a.79.79 0 00-.19.18.86.86 0 00-.09.85l-.3-.2-.42.57 2.65 1.93.44-.6-1.82-1.32a.66.66 0 01.09-.77zM110.47 93.25l1.58 1.87-2.35-.7-.41.64 3.37.84.35-.53-2.12-2.75-.42.63z"/>
    <path fill="#fff" transform="rotate(-59.1 112.74 92.713)" d="M112.36 91.07h.74v3.28h-.74z"/>
    <path fill="#fff" d="M110.67 91.84a.39.39 0 00.25-.21.38.38 0 00-.11-.56.41.41 0 00-.3 0 .47.47 0 00-.26.21.38.38 0 00-.06.32.41.41 0 00.19.24.37.37 0 00.29 0zM115.12 89.56l-.33.61a.59.59 0 01.26.36.64.64 0 01-.05.47.63.63 0 01-.49.37 1.32 1.32 0 01-.79-.21l-.11-.06a1.35 1.35 0 01-.6-.54.66.66 0 010-.61.6.6 0 01.38-.32.68.68 0 01.5 0l.33-.61a1.25 1.25 0 00-1-.09 1.41 1.41 0 00-.75.68 1.37 1.37 0 00-.12 1.17 1.75 1.75 0 00.86.93h.07a1.73 1.73 0 001.27.23 1.35 1.35 0 00.91-.75 1.25 1.25 0 00.18-.65 1.22 1.22 0 00-.14-.63 1.15 1.15 0 00-.38-.35zM116.52 87a1 1 0 010 .92.8.8 0 01-.46.44 1 1 0 01-.7 0l.91-2-.27-.12a1.81 1.81 0 00-1.25-.18 1.29 1.29 0 00-.83.76 1.41 1.41 0 00-.13.78 1.46 1.46 0 00.32.73 1.92 1.92 0 00.72.55h.08a1.62 1.62 0 001.25.1 1.54 1.54 0 00.88-.84 1.68 1.68 0 00.16-.74 1.28 1.28 0 00-.19-.67zm-1.62 1.1a1.14 1.14 0 01-.44-.47.7.7 0 01.39-.89.9.9 0 01.59.06zM118.7 81.24a2.65 2.65 0 00-1-.59l-.23-.09a2.78 2.78 0 00-1.14-.16 1.68 1.68 0 00-1.48 1.18 1.69 1.69 0 00-.07 1 1.71 1.71 0 00.49.86 2.74 2.74 0 001 .59l.24.09a2.68 2.68 0 001.13.15 1.82 1.82 0 00.92-.36 1.7 1.7 0 00.56-.82 1.79 1.79 0 00.08-1 1.74 1.74 0 00-.5-.85zm-.17 1.63a.9.9 0 01-.64.61 1.84 1.84 0 01-1.15-.11l-.24-.08a1.8 1.8 0 01-.94-.64.88.88 0 01-.11-.86.9.9 0 01.63-.61 1.92 1.92 0 011.15.11l.22.08a1.93 1.93 0 011 .63.9.9 0 01.08.87zM117.77 78.43a1.17 1.17 0 01.11-.28l-.67-.2a.9.9 0 00-.11.24.82.82 0 00.21.83l-.36-.09-.2.68 3.15.91.21-.71-2.11-.62a.69.69 0 01-.23-.76zM121.07 75.57l-3.07-.72-.15.65.31.1a1.08 1.08 0 00-.58.77 1.15 1.15 0 00.23 1 1.89 1.89 0 001.1.62 1.93 1.93 0 001.32-.07 1.13 1.13 0 00.66-.81 1.08 1.08 0 00-.15-.9h.21a.76.76 0 01.52.33.79.79 0 01.06.61 1 1 0 01-.58.73l.35.44a1.23 1.23 0 00.5-.42 1.67 1.67 0 00.31-.66 1.55 1.55 0 00-.12-1.14 1.34 1.34 0 00-.92-.53zm-1.15 1.74a1.26 1.26 0 01-.8 0 1.43 1.43 0 01-.78-.39.62.62 0 01-.15-.61.69.69 0 01.51-.55l1.41.32a.73.73 0 01.22.73.63.63 0 01-.41.5zM121.8 72a1.73 1.73 0 01-.72 0l-1.45-.24a1 1 0 00-.87.21 1.39 1.39 0 00-.43.85 1.64 1.64 0 000 .7 1.17 1.17 0 00.29.54.77.77 0 00.46.26l.13-.72a.37.37 0 01-.29-.21.61.61 0 01-.06-.43.54.54 0 01.23-.4.53.53 0 01.42-.07h.21l-.07.45a1.89 1.89 0 00.09 1.14.92.92 0 00.73.52.94.94 0 00.74-.19 1.21 1.21 0 00.41-.75 1.14 1.14 0 00-.22-.91 1.27 1.27 0 00.32 0zm-1 1.81a.42.42 0 01-.35.08.46.46 0 01-.37-.27 1.13 1.13 0 010-.63l.07-.39.61.1a.71.71 0 01.24.3.89.89 0 010 .43.57.57 0 01-.17.38zM118.76 69.2a1.16 1.16 0 00.34 1h-.38l-.07.69 3.26.35.08-.73-2.32-.25a.68.68 0 01-.33-.7.56.56 0 01.19-.43.76.76 0 01.47-.13l2.11.22.08-.73-2.19-.21c-.74-.07-1.16.24-1.24.92zM118.17 66.55a.38.38 0 00-.41.4.4.4 0 00.09.31.34.34 0 00.27.12.36.36 0 00.29-.09.39.39 0 00.13-.3.43.43 0 00-.1-.31.35.35 0 00-.27-.13z"/>
    <path fill="#fff" transform="rotate(-86.52 120.638 67.119)" d="M120.27 65.48h.74v3.28h-.74z"/>
    <path fill="#fff" d="M121.78 65.14l-2.2-1.72-.46-.01-.05 2.56.59.01.03-1.63 2.17 1.71.49.01.05-2.66-.59-.01-.03 1.74zM120.06 60.18a1 1 0 00-.8.38 1.39 1.39 0 00-.26.93 1.66 1.66 0 00.16.68 1.22 1.22 0 00.39.47.76.76 0 00.51.16v-.73a.43.43 0 01-.33-.15.74.74 0 01-.14-.41.6.6 0 01.14-.44.58.58 0 01.4-.16h.22v.45a1.87 1.87 0 00.33 1.1.93.93 0 00.81.36.89.89 0 00.69-.34 1.17 1.17 0 00.25-.82 1.14 1.14 0 00-.4-.84.94.94 0 00.3-.1v-.75h-.06a1.62 1.62 0 01-.7.15zm1.75 1.37a.51.51 0 01-.11.38.44.44 0 01-.33.16.49.49 0 01-.41-.19 1.2 1.2 0 01-.17-.61v-.4h.62a.69.69 0 01.29.27.78.78 0 01.11.39zM121.56 58a.28.28 0 01-.06.27.42.42 0 01-.26.1l-1.82.15v-.57h-.55l.05.58-.79.07.06.73.8-.06v.53h.55v-.54l1.85-.16c.62-.06.91-.36.86-.93a1.68 1.68 0 00-.11-.47h-.57a.8.8 0 01-.01.3zM118.18 57.39a.39.39 0 00.07-.31.42.42 0 00-.15-.3.34.34 0 00-.28-.07.36.36 0 00-.27.14.42.42 0 00-.08.32.43.43 0 00.15.29.38.38 0 00.29.07.35.35 0 00.27-.14z"/>
    <path fill="#fff" transform="rotate(-6.8 120.354 56.81)" d="M118.7 56.46h3.28v.74h-3.28z"/>
    <path fill="#fff" d="M119.75 52.74h-.17a1.68 1.68 0 00-1 .63 1.42 1.42 0 00-.25 1.13 1.53 1.53 0 00.34.75 1.39 1.39 0 00.67.43 2 2 0 00.89 0 1.75 1.75 0 001.14-.61 1.45 1.45 0 00.28-1.17 1.51 1.51 0 00-.34-.76 1.44 1.44 0 00-.67-.43 2 2 0 00-.89.03zm1.32 1.32a.66.66 0 01-.19.62 1.25 1.25 0 01-.75.34 1.45 1.45 0 01-.88-.07.67.67 0 01-.37-.52.68.68 0 01.19-.62 1.35 1.35 0 01.74-.34 1.45 1.45 0 01.88.07.67.67 0 01.38.52zM117.55 50.83a1.18 1.18 0 00.64.83l-.36.1.15.68 3.2-.74-.18-.7-2.27.53a.69.69 0 01-.54-.56.57.57 0 010-.46.71.71 0 01.42-.24l2.07-.48-.16-.71-2.12.49c-.7.16-1.01.59-.85 1.26zM117.31 48.73a.86.86 0 00.78.15.84.84 0 00.58-.75 2.8 2.8 0 000-.66 1.63 1.63 0 010-.57.33.33 0 01.24-.24.37.37 0 01.32.06.73.73 0 01.23.4.71.71 0 010 .5.5.5 0 01-.32.3l.2.69a1 1 0 00.48-.33 1.21 1.21 0 00.24-.58 1.7 1.7 0 00-.06-.7 1.62 1.62 0 00-.53-.85.91.91 0 00-1.19.1.94.94 0 00-.2.44 2.7 2.7 0 000 .72 2 2 0 010 .6.31.31 0 01-.21.22.36.36 0 01-.33-.07.55.55 0 01-.22-.34.6.6 0 010-.44.46.46 0 01.3-.26l-.21-.7a.9.9 0 00-.62.56 1.45 1.45 0 000 1 1.35 1.35 0 00.52.75zM32.06 49.62h9l2.05 5.55h1.74L37.34 35.4h-1.58l-7.49 19.77H30zm4.48-12.19l4 10.77h-7.96zM47.82 35.4h1.67v19.77h-1.67zM57.41 54.34a6.94 6.94 0 003.89 1.1 7.44 7.44 0 005-1.65A7.13 7.13 0 0068.58 49H66.9a6 6 0 01-1.65 3.76 5.53 5.53 0 01-4 1.26 5 5 0 01-4.2-2 8.76 8.76 0 01-1.56-5.46v-2.45a8.74 8.74 0 011.6-5.56 5.18 5.18 0 014.28-2c3.24 0 5.06 1.68 5.48 5h1.68a7.16 7.16 0 00-2.14-4.74 7.07 7.07 0 00-5-1.71 7.19 7.19 0 00-4 1.1 7.12 7.12 0 00-2.66 3.15 11.25 11.25 0 00-.92 4.67v2.56a11.11 11.11 0 00.94 4.62 7.1 7.1 0 002.66 3.14zM74 47.12h5a7.32 7.32 0 005-1.52 5.44 5.44 0 001.71-4.3A5.48 5.48 0 0084 37a7.11 7.11 0 00-4.9-1.6h-6.74v19.77H74zm0-10.31h5.18a5.08 5.08 0 013.6 1.24 4.34 4.34 0 011.27 3.28 4.13 4.13 0 01-1.27 3.22 5.36 5.36 0 01-3.71 1.16H74zM87 55.17l2-5.55h9l2 5.55h1.74L94.32 35.4h-1.59l-7.49 19.77zm6.52-17.74l4 10.77h-7.97zM51.25 78a18.42 18.42 0 00-4-1.51 10.91 10.91 0 01-3.87-1.68 3 3 0 01-1.21-2.46 3.15 3.15 0 011.34-2.64 5.85 5.85 0 013.62-1 5.38 5.38 0 013.72 1.24 4.14 4.14 0 011.38 3.26h1.69a5.55 5.55 0 00-.86-3A5.73 5.73 0 0050.62 68a7.88 7.88 0 00-3.52-.76 7.67 7.67 0 00-4.78 1.42 4.56 4.56 0 00.15 7.46A14.58 14.58 0 0047 78a12.29 12.29 0 014.22 1.82 3.42 3.42 0 01-.24 5.31 6.24 6.24 0 01-3.71 1 6.65 6.65 0 01-4.16-1.2 4 4 0 01-1.56-3.3h-1.72a5.43 5.43 0 00.9 3.08 6 6 0 002.65 2.09 9.64 9.64 0 003.84.75 7.88 7.88 0 004.92-1.42A4.45 4.45 0 0054 82.4a4.68 4.68 0 00-.69-2.57A5.83 5.83 0 0051.25 78zM71.94 76.11a11.13 11.13 0 00-1-4.66 7.19 7.19 0 00-2.69-3.11 7.45 7.45 0 00-4-1.1 7.11 7.11 0 00-6.74 4.33 11.3 11.3 0 00-1 4.78v2a9.91 9.91 0 002.13 6.69 7 7 0 005.6 2.48 7.3 7.3 0 004-1.12A7.2 7.2 0 0071 83.27a11.45 11.45 0 00.94-4.8zm-1.67 2.31a9 9 0 01-1.59 5.65 5.28 5.28 0 01-4.42 2 5.34 5.34 0 01-4.43-2 8.74 8.74 0 01-1.63-5.58v-2.08a8.74 8.74 0 011.64-5.67 5.81 5.81 0 018.82 0 8.78 8.78 0 011.61 5.6zM89.88 81.12h-1.69a6 6 0 01-1.64 3.77 5.56 5.56 0 01-4 1.25 5 5 0 01-4.21-2 8.84 8.84 0 01-1.55-5.47v-2.45a8.78 8.78 0 011.59-5.56 5.21 5.21 0 014.29-2c3.23 0 5.06 1.68 5.47 5h1.69A7.2 7.2 0 0087.74 69a7.09 7.09 0 00-5-1.71 7.26 7.26 0 00-4 1.11 7.07 7.07 0 00-2.65 3.14 11.16 11.16 0 00-.93 4.67v2.57a11.19 11.19 0 00.94 4.61 7.27 7.27 0 002.62 3.12 7 7 0 003.89 1.1 7.4 7.4 0 005-1.66 7.11 7.11 0 002.27-4.83zM27.66 62.26H103a.66.66 0 000-1.32H27.66a.66.66 0 000 1.32zM40.16 95.18a1.5 1.5 0 00-1-.33 1.73 1.73 0 00-.76.16 1.31 1.31 0 00-.55.42.87.87 0 00-.2.55h.65a.52.52 0 01.24-.43 1 1 0 01.58-.17.82.82 0 01.6.2.73.73 0 01.21.54v.3h-.64a2.13 2.13 0 00-1.27.33 1.09 1.09 0 00-.45.93 1 1 0 00.36.81 1.36 1.36 0 00.92.32 1.45 1.45 0 001.09-.48 1.25 1.25 0 00.09.41h.68v-.06a2.39 2.39 0 01-.13-.84v-1.75a1.19 1.19 0 00-.42-.91zm-.26 2.49a1 1 0 01-.4.41 1.1 1.1 0 01-.58.16.84.84 0 01-.53-.17.63.63 0 01-.2-.48c0-.47.4-.7 1.2-.7h.51zM41.45 94.92h.65v3.81h-.65zM41.78 94.28a.38.38 0 00.29-.1.41.41 0 00.1-.27.45.45 0 00-.1-.27.44.44 0 00-.58 0 .44.44 0 00-.09.27.4.4 0 00.09.27.38.38 0 00.29.1zM43.72 95.75a.91.91 0 01.77-.36.86.86 0 01.62.24.87.87 0 01.28.6H46a1.35 1.35 0 00-.46-1 1.49 1.49 0 00-1.06-.39 1.69 1.69 0 00-.91.24 1.58 1.58 0 00-.58.67 2.26 2.26 0 00-.21 1v.1a2.12 2.12 0 00.46 1.43 1.69 1.69 0 002 .34 1.58 1.58 0 00.55-.47 1.19 1.19 0 00.23-.63h-.62a.71.71 0 01-.29.53.94.94 0 01-.61.21.9.9 0 01-.77-.35 1.67 1.67 0 01-.27-1v-.12a1.67 1.67 0 01.26-1.04zM47.21 98.37a1.42 1.42 0 001.09.44 1.26 1.26 0 001.08-.54 2.24 2.24 0 00.4-1.4v-.06a2.3 2.3 0 00-.4-1.44 1.43 1.43 0 00-2.19 0v-.43h-.6v5.28h.65zm0-2.44a1 1 0 01.89-.52.87.87 0 01.75.37 1.65 1.65 0 01.28 1 1.79 1.79 0 01-.28 1.1.86.86 0 01-.74.37 1 1 0 01-.9-.52zM52.05 96.42a2.14 2.14 0 00-1.28.33 1.09 1.09 0 00-.45.93 1 1 0 00.36.81 1.36 1.36 0 00.93.32 1.43 1.43 0 001.08-.48 1.25 1.25 0 00.09.41h.69v-.06a2.16 2.16 0 01-.14-.84v-1.75a1.19 1.19 0 00-.39-.91 1.48 1.48 0 00-1-.33 1.73 1.73 0 00-.76.16 1.31 1.31 0 00-.55.42.87.87 0 00-.2.55h.65a.52.52 0 01.24-.43 1 1 0 01.58-.17.86.86 0 01.61.2.77.77 0 01.2.54v.3zm.63 1.25a.93.93 0 01-.4.41 1.08 1.08 0 01-.58.16.79.79 0 01-.52-.17.6.6 0 01-.21-.48c0-.47.4-.7 1.2-.7h.51zM54.29 98.11a.38.38 0 00.3.66.39.39 0 00.3-.1.41.41 0 000-.56.39.39 0 00-.3-.11.41.41 0 00-.3.11zM59 97.87a2.29 2.29 0 00.21-1 2.09 2.09 0 00-.48-1.44 1.61 1.61 0 00-1.26-.54 1.63 1.63 0 00-.9.25 1.65 1.65 0 00-.61.69 2.16 2.16 0 00-.22 1 2.08 2.08 0 00.48 1.43 1.61 1.61 0 001.26.54 1.75 1.75 0 00.91-.25 1.64 1.64 0 00.61-.68zm-.73 0a1 1 0 01-1.58 0 1.62 1.62 0 01-.29-1 1.76 1.76 0 01.29-1.1 1 1 0 01.78-.38.94.94 0 01.79.39 1.62 1.62 0 01.3 1 1.81 1.81 0 01-.31 1.1zM60.47 95.36v-.44h-.63v3.82h.65V96a.86.86 0 01.87-.55 1.58 1.58 0 01.32 0v-.55a.69.69 0 00-.29-.05 1 1 0 00-.92.51zM65.16 98.64v-3.72h-.6v.43a1.41 1.41 0 00-2.18 0 2.2 2.2 0 00-.42 1.42 2.34 2.34 0 00.42 1.47 1.3 1.3 0 001.08.54 1.32 1.32 0 001.07-.46v.33a1 1 0 01-.27.76 1 1 0 01-.74.26 1.28 1.28 0 01-1-.51l-.34.39a1.46 1.46 0 00.6.48 1.91 1.91 0 00.81.18 1.66 1.66 0 001.18-.43 1.55 1.55 0 00.39-1.14zm-.66-1a.94.94 0 01-.91.56.86.86 0 01-.74-.37 1.73 1.73 0 01-.26-1 1.82 1.82 0 01.27-1.09.85.85 0 01.74-.37 1 1 0 01.9.54zM66.09 99.18l2.14-5.57h-.56l-2.14 5.57h.56zM70.15 98.27a1 1 0 01-.64-.19.65.65 0 01-.26-.52h-.66a1.1 1.1 0 00.2.63 1.22 1.22 0 00.55.45 1.92 1.92 0 00.81.17 1.73 1.73 0 001.06-.31 1 1 0 00.41-.82.94.94 0 00-.14-.52 1.21 1.21 0 00-.45-.37 4.05 4.05 0 00-.79-.26 2.26 2.26 0 01-.68-.23.39.39 0 01-.18-.35.48.48 0 01.2-.41.9.9 0 01.55-.15.88.88 0 01.58.19.58.58 0 01.22.46h.66a1.06 1.06 0 00-.41-.85 1.75 1.75 0 00-2.06 0 1 1 0 00-.4.79.88.88 0 00.14.49 1.29 1.29 0 00.43.35 3.35 3.35 0 00.79.25 2 2 0 01.69.25.47.47 0 01.2.41.45.45 0 01-.22.4 1.07 1.07 0 01-.6.14zM73.85 94.85a1.63 1.63 0 00-.9.25 1.65 1.65 0 00-.61.69 2.16 2.16 0 00-.22 1 2.08 2.08 0 00.48 1.43 1.61 1.61 0 001.26.54 1.75 1.75 0 00.91-.25 1.64 1.64 0 00.61-.69 2.29 2.29 0 00.21-1 2.09 2.09 0 00-.48-1.44 1.61 1.61 0 00-1.26-.53zm.8 3a1 1 0 01-1.58 0 1.62 1.62 0 01-.29-1 1.76 1.76 0 01.29-1.1 1 1 0 01.78-.38.94.94 0 01.79.39 1.62 1.62 0 01.3 1 1.81 1.81 0 01-.29 1.12zM78.49 98.63a1.62 1.62 0 00.56-.47 1.17 1.17 0 00.22-.63h-.61a.75.75 0 01-.29.53 1 1 0 01-.61.21.91.91 0 01-.78-.35 1.67 1.67 0 01-.27-1v-.12a1.67 1.67 0 01.27-1 .92.92 0 01.77-.36.88.88 0 01.63.24.92.92 0 01.28.6h.61a1.37 1.37 0 00-.45-1 1.52 1.52 0 00-1.07-.39 1.66 1.66 0 00-.9.24 1.6 1.6 0 00-.59.67 2.41 2.41 0 00-.2 1v.1a2.07 2.07 0 00.46 1.43 1.6 1.6 0 001.24.52 1.55 1.55 0 00.73-.22zM82.51 98.74v-1.2h.71V97h-.71v-3.4h-.69l-2.3 3.56v.38h2.33v1.2zM80.26 97l1.52-2.37.07-.14V97zM85.1 98.27a1 1 0 01-.65-.19.68.68 0 01-.26-.52h-.65a1 1 0 00.2.63 1.17 1.17 0 00.55.45 1.86 1.86 0 00.81.17 1.75 1.75 0 001.06-.31 1 1 0 00.41-.82.86.86 0 00-.15-.52 1.07 1.07 0 00-.45-.37 3.83 3.83 0 00-.79-.26 2.18 2.18 0 01-.67-.23.38.38 0 01-.19-.35.51.51 0 01.2-.41.93.93 0 01.56-.15.84.84 0 01.57.19.59.59 0 01.23.46h.65a1.05 1.05 0 00-.4-.85 1.77 1.77 0 00-2.07 0 1 1 0 00-.39.79.88.88 0 00.14.49 1.11 1.11 0 00.43.35 3.11 3.11 0 00.78.25 2.08 2.08 0 01.7.25.5.5 0 01.2.41.46.46 0 01-.23.4 1 1 0 01-.59.14zM89.71 98.56a1.58 1.58 0 00.61-.69 2.3 2.3 0 00.22-1 2.09 2.09 0 00-.48-1.44 1.63 1.63 0 00-1.26-.54 1.6 1.6 0 00-.9.25 1.58 1.58 0 00-.61.69 2.17 2.17 0 00-.23 1 2.08 2.08 0 00.49 1.43 1.6 1.6 0 001.25.54 1.7 1.7 0 00.91-.24zm-2-1.69a1.76 1.76 0 01.3-1.1.93.93 0 01.78-.38 1 1 0 01.79.39 1.68 1.68 0 01.29 1 1.74 1.74 0 01-.29 1.09 1 1 0 01-1.58 0 1.69 1.69 0 01-.28-1z"/>
    <path d="M117.89 113.75v.44H117v2.22h-.52v-2.22h-.85v-.44zm2.87 2.66l-.09-1.57v-.74c-.07.24-.15.55-.23.79l-.48 1.48h-.54l-.48-1.52-.19-.75v.74l-.09 1.57h-.51l.19-2.66h.8l.45 1.3c.06.2.11.4.18.67.07-.24.13-.47.19-.66l.45-1.31h.77l.2 2.66z" fill="#231f20"/>
</svg>
